<?xml version="1.0" encoding="iso-8859-1"?>
<!-- Generator: Adobe Illustrator 19.0.0, SVG Export Plug-In . SVG Version: 6.00 Build 0)  -->
<svg version="1.1" id="Layer_1" xmlns="http://www.w3.org/2000/svg" xmlns:xlink="http://www.w3.org/1999/xlink" x="0px" y="0px"
	 viewBox="0 0 512 512" style="enable-background:new 0 0 512 512;" xml:space="preserve">
<path style="fill:#E1BE91;" d="M335.448,339.121v-47.81H176.552v47.81c0,8.193-5.636,15.309-13.611,17.186L53.706,382.009
	c-15.95,3.752-27.223,17.985-27.223,34.37v86.793c0,4.875,3.953,8.828,8.828,8.828H476.69c4.875,0,8.828-3.953,8.828-8.828V416.38
	c0-16.386-11.273-30.618-27.223-34.371l-109.235-25.703C341.085,354.43,335.448,347.314,335.448,339.121z"/>
<path style="fill:#E4EAF6;" d="M458.294,382.008l-109.235-25.702c-1.65-0.388-3.167-1.047-4.587-1.846L256,406.069l-85.023-54.105
	c-2.201,2.072-4.934,3.613-8.036,4.343L53.706,382.008c-15.95,3.753-27.223,17.986-27.223,34.371v86.793
	c0,4.875,3.953,8.828,8.828,8.828H476.69c4.875,0,8.828-3.953,8.828-8.828V416.38C485.517,399.994,474.244,385.761,458.294,382.008z
	"/>
<polygon style="fill:#707487;" points="234.421,512 277.579,512 273.655,432.552 238.345,432.552 "/>
<path style="fill:#D5DCEC;" d="M333.72,360.733L256,406.069l-78.467-49.934c5.738,38.237,38.631,67.589,78.467,67.589
	C294.233,423.724,326.138,396.71,333.72,360.733z"/>
<g>
	<path style="fill:#D7DEED;" d="M91.289,445.881l-57.203-51.384c-4.793,6.069-7.604,13.707-7.604,21.884v86.792
		c0,4.875,3.953,8.828,8.828,8.828h70.621v-33.283C105.931,466.189,100.608,454.253,91.289,445.881z"/>
	<path style="fill:#D7DEED;" d="M420.711,445.881l57.203-51.384c4.793,6.069,7.604,13.707,7.604,21.884v86.792
		c0,4.875-3.953,8.828-8.828,8.828h-70.621v-33.283C406.069,466.189,411.392,454.253,420.711,445.881z"/>
</g>
<path style="fill:#5B5D6E;" d="M278.069,406.069h-44.138v22.069c0,7.313,5.929,13.241,13.241,13.241h17.655
	c7.313,0,13.241-5.929,13.241-13.241V406.069z"/>
<circle style="fill:#707487;" cx="256" cy="167.724" r="158.897"/>
<circle style="fill:#FFF0E6;" cx="256" cy="167.724" r="123.586"/>
<circle style="fill:#FFE2C7;" cx="256" cy="167.724" r="61.793"/>
<path style="fill:#707487;" d="M233.931,198.621c-2.259,0-4.518-0.862-6.241-2.586c-3.448-3.448-3.448-9.035,0-12.483l83.862-83.862
	c3.448-3.448,9.035-3.448,12.483,0c3.448,3.448,3.448,9.035,0,12.483l-83.862,83.862
	C238.449,197.759,236.19,198.621,233.931,198.621z"/>
<path style="fill:#464655;" d="M317.793,176.552h-88.276c-4.875,0-8.828-3.948-8.828-8.828s3.953-8.828,8.828-8.828h88.276
	c4.875,0,8.828,3.948,8.828,8.828S322.668,176.552,317.793,176.552z"/>
<g>
	<path style="fill:#5B5D6E;" d="M256,335.448c-92.483,0-167.724-75.242-167.724-167.724S163.518,0,256,0
		s167.724,75.242,167.724,167.724S348.483,335.448,256,335.448z M256,17.655c-82.75,0-150.069,67.319-150.069,150.069
		S173.25,317.793,256,317.793s150.069-67.319,150.069-150.069S338.75,17.655,256,17.655z"/>
	<circle style="fill:#5B5D6E;" cx="256" cy="167.724" r="17.655"/>
</g>
<path style="fill:#FFDCB9;" d="M256,300.138c-73.013,0-132.414-59.396-132.414-132.414S182.987,35.31,256,35.31
	s132.414,59.396,132.414,132.414S329.013,300.138,256,300.138z M256,52.966c-63.281,0-114.759,51.482-114.759,114.759
	S192.719,282.483,256,282.483S370.759,231,370.759,167.724S319.281,52.966,256,52.966z"/>
<g>
	<path style="fill:#E1BE91;" d="M158.897,158.897h-17.655c-4.875,0-8.828,3.953-8.828,8.828l0,0c0,4.875,3.953,8.828,8.828,8.828
		h17.655c4.875,0,8.828-3.948,8.828-8.828S163.772,158.897,158.897,158.897z"/>
	<path style="fill:#E1BE91;" d="M370.759,158.897h-17.655c-4.875,0-8.828,3.953-8.828,8.828l0,0c0,4.875,3.953,8.828,8.828,8.828
		h17.655c4.875,0,8.828-3.948,8.828-8.828S375.634,158.897,370.759,158.897z"/>
	<path style="fill:#E1BE91;" d="M264.828,70.621V52.966c0-4.875-3.953-8.828-8.828-8.828l0,0c-4.875,0-8.828,3.953-8.828,8.828
		v17.655c0,4.875,3.948,8.828,8.828,8.828C260.879,79.448,264.828,75.496,264.828,70.621z"/>
	<path style="fill:#E1BE91;" d="M264.828,282.483v-17.655c0-4.875-3.953-8.828-8.828-8.828l0,0c-4.875,0-8.828,3.953-8.828,8.828
		v17.655c0,4.875,3.948,8.828,8.828,8.828C260.879,291.31,264.828,287.358,264.828,282.483z"/>
</g>
<g>
	<path style="fill:#D7DEED;" d="M175.311,333.45L256,406.069c0,0-22.598,11.407-50.483,34.4c-5.752,4.743-14.454,2.822-17.539-3.966
		l-37.909-83.4l11.992-17.988C165.047,330.636,171.311,329.849,175.311,333.45z"/>
	<path style="fill:#D7DEED;" d="M336.689,333.45L256,406.069c0,0,22.598,11.407,50.483,34.4c5.752,4.743,14.454,2.822,17.539-3.966
		l37.909-83.4l-11.992-17.988C346.953,330.636,340.689,329.849,336.689,333.45z"/>
</g>
<g>
</g>
<g>
</g>
<g>
</g>
<g>
</g>
<g>
</g>
<g>
</g>
<g>
</g>
<g>
</g>
<g>
</g>
<g>
</g>
<g>
</g>
<g>
</g>
<g>
</g>
<g>
</g>
<g>
</g>
</svg>
